<mxfile host="app.diagrams.net" modified="2024-05-04T08:57:11.277Z" agent="Mozilla/5.0 (Windows NT 10.0; Win64; x64) AppleWebKit/537.36 (KHTML, like Gecko) Chrome/124.0.0.0 Safari/537.36 Edg/124.0.0.0" version="24.3.1" etag="fbzQITgPOz-k3bBdwx9N" type="github">
  <diagram name="Trang-1" id="jlrSxRIfaFYinMx3E_z8">
    <mxGraphModel>
      <root>
        <mxCell id="0" />
        <mxCell id="1" parent="0" />
      </root>
    </mxGraphModel>
  </diagram>
</mxfile>
